<?xml version="1.0" encoding="utf-8"?>
<!-- Generator: Adobe Illustrator 26.0.1, SVG Export Plug-In . SVG Version: 6.00 Build 0)  -->
<svg version="1.1" id="Layer_1" xmlns="http://www.w3.org/2000/svg" xmlns:xlink="http://www.w3.org/1999/xlink" x="0px" y="0px"
	 viewBox="0 0 113 22" style="enable-background:new 0 0 113 22;" xml:space="preserve">
<style type="text/css">
	.st0{fill:none;stroke:#FFFFFF;stroke-width:2;stroke-linecap:round;stroke-linejoin:round;}
	.st1{fill:#FF0000;stroke:#000000;stroke-width:2.1539;stroke-linecap:round;stroke-linejoin:round;}
	.st2{fill:none;stroke:#000000;stroke-width:2;stroke-linecap:round;stroke-linejoin:round;}
	.st3{fill:none;stroke:#B5B8C6;stroke-width:2;stroke-linecap:round;stroke-linejoin:round;}
	.st4{fill:#1E1F26;stroke:#0D0E11;stroke-width:2;stroke-miterlimit:10;}
	.st5{clip-path:url(#SVGID_00000062882309207634173040000005453660383253387161_);}
	.st6{clip-path:url(#SVGID_00000074435005324279098450000003565405145117732791_);fill:#1E1F26;}
	
		.st7{clip-path:url(#SVGID_00000074435005324279098450000003565405145117732791_);fill:none;stroke:#0D0E11;stroke-width:2;stroke-miterlimit:10;}
</style>
<g>
	<polyline class="st0" points="36.2,46.5 39.2,49.5 49.2,39.5 	"/>
	<path class="st0" d="M48.2,47.5v7c0,1.1-0.9,2-2,2h-14c-1.1,0-2-0.9-2-2v-14c0-1.1,0.9-2,2-2h11"/>
</g>
<polyline class="st0" points="111.2,47.5 107.2,47.5 104.2,56.5 98.2,38.5 95.2,47.5 91.2,47.5 "/>
<path class="st1" d="M-70.7,82.3h-36.8c-3.7,0-6.6,3-6.6,6.6v36.8c0,3.7,3,6.6,6.6,6.6h36.8c3.7,0,6.6-3,6.6-6.6V88.9
	C-64.1,85.3-67,82.3-70.7,82.3z"/>
<image style="overflow:visible;" width="256" height="256" xlink:href="../../user.workflow.1A87E8D7-C853-4D68-93C3-8F5B00FFCA82/icon.png"  transform="matrix(1 0 0 1 185 -15.2143)">
</image>
<g>
	<path class="st0" d="M7.2,38.5h14c1.1,0,2,0.9,2,2v14c0,1.1-0.9,2-2,2h-14c-1.1,0-2-0.9-2-2v-14C5.2,39.4,6.1,38.5,7.2,38.5z"/>
	<line class="st0" x1="11.2" y1="44.5" x2="17.2" y2="50.5"/>
	<line class="st0" x1="17.2" y1="44.5" x2="11.2" y2="50.5"/>
</g>
<g>
	<path class="st2" d="M55,71.7h14c1.1,0,2,0.9,2,2v14c0,1.1-0.9,2-2,2H55c-1.1,0-2-0.9-2-2v-14C53,72.6,53.9,71.7,55,71.7z"/>
	<line class="st2" x1="59" y1="77.7" x2="65" y2="83.7"/>
	<line class="st2" x1="65" y1="77.7" x2="59" y2="83.7"/>
</g>
<g>
	<path class="st3" d="M101.2,113.8l15.7-12.7l15.7,12.7v19.9c0,2-1.6,3.6-3.5,3.6h-24.5c-1.9,0-3.5-1.6-3.5-3.6V113.8z"/>
	<polyline class="st3" points="111.7,137.4 111.7,119.3 122.2,119.3 122.2,137.4 	"/>
</g>
<path class="st4" d="M14.4,100.2h-36.8c-3.7,0-6.6,3-6.6,6.6v36.8c0,3.7,3,6.6,6.6,6.6h36.8c3.7,0,6.6-3,6.6-6.6v-36.8
	C21,103.1,18,100.2,14.4,100.2z"/>
<path class="st4" d="M14.4,100.2h-36.8c-3.7,0-6.6,3-6.6,6.6v36.8c0,3.7,3,6.6,6.6,6.6h36.8c3.7,0,6.6-3,6.6-6.6v-36.8
	C21,103.1,18,100.2,14.4,100.2z"/>
<g id="iconbg_00000127013144677124798720000000645562091443688337_">
	<path class="st4" d="M23.5,177.5h-36.8c-3.7,0-6.6,3-6.6,6.6v36.8c0,3.7,3,6.6,6.6,6.6h36.8c3.7,0,6.6-3,6.6-6.6v-36.8
		C30.2,180.5,27.2,177.5,23.5,177.5z"/>
</g>
<g>
	<g id="iconbg_00000155841657477718183120000008734937855737887155_">
		<g>
			<defs>
				<rect id="SVGID_1_" x="48.2" y="170.2" width="52" height="52"/>
			</defs>
			<clipPath id="SVGID_00000168819979201826342960000014696542169181975478_">
				<use xlink:href="#SVGID_1_"  style="overflow:visible;"/>
			</clipPath>
			<g style="clip-path:url(#SVGID_00000168819979201826342960000014696542169181975478_);">
				<defs>
					<rect id="SVGID_00000070837002708510650200000010554089406065840563_" x="48.2" y="170.2" width="52" height="52"/>
				</defs>
				<clipPath id="SVGID_00000073688123960480840460000012307289106322921907_">
					<use xlink:href="#SVGID_00000070837002708510650200000010554089406065840563_"  style="overflow:visible;"/>
				</clipPath>
				<path style="clip-path:url(#SVGID_00000073688123960480840460000012307289106322921907_);fill:#1E1F26;" d="M92.5,171.2H55.8
					c-3.7,0-6.6,3-6.6,6.6v36.8c0,3.7,3,6.6,6.6,6.6h36.8c3.7,0,6.6-3,6.6-6.6v-36.8C99.2,174.2,96.2,171.2,92.5,171.2"/>
				
					<path style="clip-path:url(#SVGID_00000073688123960480840460000012307289106322921907_);fill:none;stroke:#0D0E11;stroke-width:2;stroke-miterlimit:10;" d="
					M92.5,171.2H55.8c-3.7,0-6.6,3-6.6,6.6v36.8c0,3.7,3,6.6,6.6,6.6h36.8c3.7,0,6.6-3,6.6-6.6v-36.8
					C99.2,174.2,96.2,171.2,92.5,171.2z"/>
			</g>
		</g>
	</g>
	<g>
		<path class="st3" d="M60.2,191.4l14-11.3l14,11.3v17.7c0,1.8-1.4,3.2-3.1,3.2H63.3c-1.7,0-3.1-1.4-3.1-3.2V191.4z"/>
		<polyline class="st3" points="69.5,212.3 69.5,196.2 78.8,196.2 78.8,212.3 		"/>
	</g>
</g>
</svg>
